<?xml version="1.0" encoding="UTF-8" standalone="no"?>
<!-- Created with Inkscape (http://www.inkscape.org/) -->

<svg
   width="120"
   height="120"
   viewBox="0 0 31.749999 31.75"
   version="1.1"
   id="svg1"
   inkscape:version="1.4 (1:1.4+202410161351+e7c3feb100)"
   sodipodi:docname="carlo78.svg"
   xmlns:inkscape="http://www.inkscape.org/namespaces/inkscape"
   xmlns:sodipodi="http://sodipodi.sourceforge.net/DTD/sodipodi-0.dtd"
   xmlns="http://www.w3.org/2000/svg"
   xmlns:svg="http://www.w3.org/2000/svg">
  <sodipodi:namedview
     id="namedview1"
     pagecolor="#ffffff"
     bordercolor="#000000"
     borderopacity="0.25"
     inkscape:showpageshadow="2"
     inkscape:pageopacity="0.0"
     inkscape:pagecheckerboard="0"
     inkscape:deskcolor="#d1d1d1"
     inkscape:document-units="px"
     inkscape:zoom="6.2787318"
     inkscape:cx="59.406902"
     inkscape:cy="65.220178"
     inkscape:window-width="1854"
     inkscape:window-height="1131"
     inkscape:window-x="0"
     inkscape:window-y="0"
     inkscape:window-maximized="1"
     inkscape:current-layer="layer1" />
  <defs
     id="defs1" />
  <g
     inkscape:label="Layer 1"
     inkscape:groupmode="layer"
     id="layer1">
    <path
       style="fill:#f6d5ff;stroke:#f6d5ff;stroke-width:0.264583;stroke-linejoin:round"
       d="m 10.113507,25.663025 -3.1183312,1.390607 0.6320943,1.17991 1.4327468,-0.927071 -0.9270714,1.769861 1.1377694,0.505677 0.674234,-1.474888 0.2949771,2.106983 1.179909,-0.168561 -0.337117,-4.17182 z"
       id="path5" />
    <path
       style="fill:#f6d5ff;stroke:#f6d5ff;stroke-width:0.264583;stroke-linejoin:round"
       d="m 20.916413,26.258885 3.359504,-0.609516 0.143148,1.330879 -1.706006,0.04206 1.763504,0.939108 -0.654622,1.059103 -1.388379,-0.838027 0.944246,1.906512 -1.069547,0.525991 -2.073556,-3.635671 z"
       id="path5-7" />
    <path
       style="fill:#80b3ff;stroke:#80b3ff;stroke-width:0.26458333;stroke-linejoin:round"
       d="M 3.8347049,17.825056 6.2366627,5.2674517 9.1864359,8.7228999 10.450624,8.3857832 l 0.927072,1.1799091 -0.800653,3.4975877 -1.5591658,0.379257 -1.6013051,6.447361 -0.884932,0.421396 0.6320943,-4.298241 -1.5591657,5.225312 -0.7163734,0.08428 0.7163734,-6.152383 v 0 l -2.1491205,6.278802 z"
       id="path1" />
    <path
       style="fill:#80b3ff;stroke:#80b3ff;stroke-width:0.264583;stroke-linejoin:round"
       d="M 27.333161,17.573955 24.931203,5.0163511 21.98143,8.4717993 20.717242,8.1346826 19.79017,9.3145917 l 0.800653,3.4975873 1.559166,0.379257 1.601305,6.447361 0.884932,0.421396 -0.632094,-4.298241 1.559165,5.225312 0.716374,0.08428 -0.716374,-6.152383 v 0 l 2.149121,6.278802 z"
       id="path1-5" />
    <path
       style="fill:#2ca02c;stroke:#2ca02c;stroke-width:0.264583;stroke-linejoin:round"
       d="M 16.603008,30.087685 C 14.72737,30.110641 12.852897,29.106747 11.419835,27.896425 10.223114,26.885709 9.0147953,25.496862 8.8914585,23.9353 8.7611906,22.285983 10.307043,20.939219 10.87202,19.384222 c 0.560069,-1.541488 1.036622,-3.118213 1.390607,-4.719636 0.450627,-2.038627 1.406141,-4.162392 0.927072,-6.1945238 C 12.886575,7.1842625 11.345552,6.4739375 10.91416,5.225312 10.486959,3.9888152 9.9233291,2.3564795 10.703462,1.306328 11.410464,0.35461904 12.982663,0.61201577 14.15891,0.46353576 c 1.170703,-0.14778017 2.380193,-0.26091125 3.539728,-0.0421396 1.176499,0.22197227 2.822547,0.26361829 3.329029,1.34846764 0.599455,1.2839897 -0.758929,2.738372 -1.306328,4.0454029 -0.422302,1.0083347 -1.319934,1.8323507 -1.517026,2.9076332 -0.364689,1.9896531 0.346983,4.0371801 0.716374,6.0259651 0.31231,1.681462 0.649643,3.376483 1.264188,4.972474 0.702193,1.823615 2.795863,3.229863 2.739075,5.183173 -0.03626,1.247324 -1.004807,2.374663 -1.938422,3.202609 -1.199398,1.063647 -2.779549,1.960945 -4.38252,1.980564 z"
       id="path2"
       sodipodi:nodetypes="aaaaaaaaaaaaaaaaaa" />
    <path
       style="fill:#f6d5ff;stroke:#f6d5ff;stroke-width:0.264583;stroke-linejoin:round"
       d="M 13.442537,2.7812145 12.852582,5.43601 14.538167,6.6159194 15.001703,5.0567536 Z"
       id="path3" />
    <path
       style="fill:#f6d5ff;stroke:#f6d5ff;stroke-width:0.264583;stroke-linejoin:round"
       d="M 17.855033,2.6820806 18.444988,5.3368761 16.759402,6.5167855 16.295866,4.9576197 Z"
       id="path3-2" />
    <ellipse
       style="fill:#f6d5ff;stroke:#f6d5ff;stroke-width:0.264583;stroke-linejoin:round"
       id="path4"
       cx="16.729425"
       cy="24.08279"
       rx="0.54781497"
       ry="0.90600169" />
    <path
       style="fill:#ffcc00;stroke:#ffcc00;stroke-width:0.264583;stroke-linejoin:round"
       d="m 15.744893,6.2366632 3.223403,2.4233326 0.415923,2.2279012 -0.259952,0.742635 -1.143789,-1.602526 -2.599518,-1.9933865 z"
       id="path6" />
    <ellipse
       style="fill:#000000;stroke:#000000;stroke-width:0.264583;stroke-linejoin:round"
       id="path7"
       cx="14.222119"
       cy="5.2674518"
       rx="0.5267452"
       ry="0.42139614" />
    <ellipse
       style="fill:#000000;stroke:#000000;stroke-width:0.264583;stroke-linejoin:round"
       id="path7-6"
       cx="17.094822"
       cy="5.1345472"
       rx="0.5267452"
       ry="0.42139614" />
    <ellipse
       style="fill:#000000;stroke:#d4aa00;stroke-width:0.264583;stroke-linejoin:round"
       id="path7-61"
       cx="18.636063"
       cy="9.7982388"
       rx="0.23176791"
       ry="0.42139614" />
  </g>
</svg>
